<?xml version="1.0" encoding="UTF-8" standalone="no"?><svg id="Layer_1" data-name="Layer 1" xmlns="http://www.w3.org/2000/svg" width="168" height="55" viewBox="0 0 168 55"><defs><style>.cls-1{fill:#011e41;}.cls-2{fill:#8dc63f;}.cls-3{fill:#be1e2d;}</style></defs><path class="cls-1" d="M12.57,23.5c0,4.33-2.69,7.84-6,7.84s-6-3.51-6-7.84,2.7-7.83,6-7.83S12.57,19.18,12.57,23.5Z"/><path class="cls-1" d="M22.69,19.1c-1.87,0-3.39,2-3.39,4.4s1.52,4.41,3.39,4.41,3.38-2,3.38-4.41S24.56,19.1,22.69,19.1Z"/><path class="cls-1" d="M33.06,21a2.25,2.25,0,0,0-1.91,2.48A2.25,2.25,0,0,0,33.06,26,2.25,2.25,0,0,0,35,23.5,2.25,2.25,0,0,0,33.06,21Z"/><path class="cls-1" d="M38.88,22.11a1.26,1.26,0,0,0-1.07,1.39,1.11,1.11,0,1,0,2.14,0A1.25,1.25,0,0,0,38.88,22.11Z"/><path class="cls-2" d="M17.08.8c-2.49-1.29-4.51.29-4.51,3.54s2,6.92,4.51,8.21S21.6,12.27,21.6,9,19.58,2.1,17.08.8Z"/><path class="cls-2" d="M28.61,9.65c-1.4-.73-2.54.16-2.54,2a5.6,5.6,0,0,0,2.54,4.62c1.4.73,2.54-.16,2.54-2A5.61,5.61,0,0,0,28.61,9.65Z"/><path class="cls-2" d="M36.39,15.13c-.79-.4-1.43.1-1.43,1.12a3.14,3.14,0,0,0,1.43,2.6c.78.41,1.42-.09,1.42-1.12A3.17,3.17,0,0,0,36.39,15.13Z"/><path class="cls-3" d="M21.6,38c0-3.25-2-4.83-4.52-3.54s-4.51,5-4.51,8.22,2,4.83,4.51,3.54S21.6,41.23,21.6,38Z"/><path class="cls-3" d="M31.15,32.73c0-1.82-1.14-2.71-2.54-2a5.61,5.61,0,0,0-2.54,4.63c0,1.82,1.14,2.72,2.54,2A5.61,5.61,0,0,0,31.15,32.73Z"/><path class="cls-3" d="M37.81,29.27c0-1-.64-1.52-1.42-1.12A3.16,3.16,0,0,0,35,30.76c0,1,.64,1.52,1.43,1.11A3.16,3.16,0,0,0,37.81,29.27Z"/><path class="cls-1" d="M100,22.08h24.55A18,18,0,0,0,123,14.59a19.75,19.75,0,0,0-4.2-6,20.48,20.48,0,0,0-6.19-4.16A22.72,22.72,0,0,0,105,2.56s-1.31-.05-1.84,0h0a22.72,22.72,0,0,0-7.58,1.83,21.09,21.09,0,0,0-6.24,4.16,21.64,21.64,0,0,0-4.39,6,18.74,18.74,0,0,0-1.89,7.49,13.76,13.76,0,0,0,0,1.86h0c0,.08,0,.15,0,.22a17.6,17.6,0,0,1-1.48,5.61,15,15,0,0,1-7.68,7.63,13,13,0,0,1-5.32,1.11c-.69,0-1.54,0-1.83,0h0A14.73,14.73,0,0,1,61,37.4a13.89,13.89,0,0,1-4.59-3,14.12,14.12,0,0,1-3-4.59A14.77,14.77,0,0,1,52.27,24h0V22.18h0a13,13,0,0,1,1.11-5.31,15.19,15.19,0,0,1,3-4.49A14.75,14.75,0,0,1,61,9.19a17.54,17.54,0,0,1,5.75-1.5v-5a18.69,18.69,0,0,0-7.59,1.54A20.6,20.6,0,0,0,53,8.41a21.9,21.9,0,0,0-4.4,6.19,19.47,19.47,0,0,0-1.88,7.58,12.32,12.32,0,0,0,0,1.86.31.31,0,0,0,0,.1,19.5,19.5,0,0,0,1.87,7.47A22.48,22.48,0,0,0,59.18,42.24a19.65,19.65,0,0,0,7.59,1.88c.82,0,1.83,0,1.83,0a19.65,19.65,0,0,0,7.59-1.88,21.91,21.91,0,0,0,6.18-4.4,20.14,20.14,0,0,0,3.38-4.56,21.15,21.15,0,0,0,9.83,8.94A20.5,20.5,0,0,0,103.16,44V39a15.57,15.57,0,0,1-5.75-1.44,15.85,15.85,0,0,1-4.59-3.24,14.74,14.74,0,0,1-4.15-10.39h0c0-.16,0-1.35,0-1.83a13,13,0,0,1,1.11-5.32,15,15,0,0,1,7.63-7.68,17.61,17.61,0,0,1,5.75-1.5s1.41,0,1.84,0a15.27,15.27,0,0,1,7.87,3,16.23,16.23,0,0,1,5.27,6.47H100Z"/><path class="cls-1" d="M162.61,23.94a18.05,18.05,0,0,1-1.5,5.75,15.16,15.16,0,0,1-3.19,4.59,15,15,0,0,1-4.49,3,12.89,12.89,0,0,1-5.32,1.12c-.7,0-1.54,0-1.83,0h0a14.56,14.56,0,0,1-5.75-1.12,13.73,13.73,0,0,1-4.59-3,14.12,14.12,0,0,1-3.05-4.59,14.73,14.73,0,0,1-1.11-5.75h0V22.11h0a13,13,0,0,1,1.11-5.32,15.19,15.19,0,0,1,3.05-4.49,14.92,14.92,0,0,1,4.59-3.19,17.79,17.79,0,0,1,5.75-1.5v-5a18.69,18.69,0,0,0-7.59,1.54,20.63,20.63,0,0,0-6.23,4.21,21.71,21.71,0,0,0-4.4,6.18,19.47,19.47,0,0,0-1.88,7.59,12.17,12.17,0,0,0,0,1.85V24a19.66,19.66,0,0,0,1.88,7.5,22.48,22.48,0,0,0,10.63,10.63A19.65,19.65,0,0,0,146.28,44c.82,0,1.83,0,1.83,0a19.7,19.7,0,0,0,7.59-1.88,21.91,21.91,0,0,0,6.18-4.4,20.6,20.6,0,0,0,4.2-6.23,18.54,18.54,0,0,0,1.55-7.59Z"/><path class="cls-1" d="M50.51,54.58a3.48,3.48,0,0,1-1.37.23,2.47,2.47,0,0,1-2.69-2.62,2.64,2.64,0,0,1,2.83-2.74,3,3,0,0,1,1.27.23l-.2.75a2.77,2.77,0,0,0-1-.2,1.75,1.75,0,0,0-1.85,1.92A1.71,1.71,0,0,0,49.31,54a2.94,2.94,0,0,0,1-.19Z"/><path class="cls-1" d="M57.86,52.08a2.47,2.47,0,0,1-2.52,2.73,2.42,2.42,0,0,1-2.44-2.64,2.52,2.52,0,0,1,2.52-2.73A2.42,2.42,0,0,1,57.86,52.08Zm-3.94.07c0,1.06.54,1.9,1.46,1.9s1.46-.86,1.46-1.94-.49-1.91-1.46-1.91S53.92,51.07,53.92,52.15Z"/><path class="cls-1" d="M60.73,49.61a8.33,8.33,0,0,1,1.46-.12,2.51,2.51,0,0,1,1.63.42A1.31,1.31,0,0,1,64.28,51a1.37,1.37,0,0,1-1,1.29v0a1.29,1.29,0,0,1,.74,1,13.06,13.06,0,0,0,.41,1.45h-1a6.85,6.85,0,0,1-.36-1.23c-.15-.68-.4-.89-.94-.91h-.49v2.14h-1Zm1,2.29h.57c.65,0,1.05-.34,1.05-.86s-.4-.83-1-.83a2.34,2.34,0,0,0-.6,0Z"/><path class="cls-1" d="M67.23,49.53h1v2.39h0c.13-.2.26-.38.39-.56L70,49.53h1.18l-1.82,2.21,1.94,3H70.16l-1.49-2.38-.48.55v1.83h-1Z"/><path class="cls-1" d="M80.45,52.42h-2V54h2.23v.78H77.5v-5.2h3.07v.78H78.46v1.34h2Z"/><path class="cls-1" d="M83.57,54.73v-5.2h1.1L86,51.76a16.07,16.07,0,0,1,.9,1.74h0a18.43,18.43,0,0,1-.09-2.16V49.53h.89v5.2h-1l-1.38-2.29a17,17,0,0,1-.94-1.79h0c0,.67,0,1.35,0,2.21v1.86Z"/><path class="cls-1" d="M95.15,54.49a5.45,5.45,0,0,1-1.69.29,2.89,2.89,0,0,1-2.08-.69,2.59,2.59,0,0,1-.74-1.91,2.67,2.67,0,0,1,2.94-2.7,3.66,3.66,0,0,1,1.4.24l-.21.77a2.76,2.76,0,0,0-1.2-.23,1.76,1.76,0,0,0-1.92,1.87A1.73,1.73,0,0,0,93.49,54a2,2,0,0,0,.73-.1v-1.3h-.94v-.75h1.87Z"/><path class="cls-1" d="M98.18,49.53h1v4.4h2.17v.8H98.18Z"/><path class="cls-1" d="M105.05,49.53v5.2h-1v-5.2Z"/><path class="cls-1" d="M108.18,53.7a2.73,2.73,0,0,0,1.27.33c.62,0,1-.29,1-.71s-.27-.63-.93-.87c-.88-.3-1.44-.76-1.44-1.51s.72-1.49,1.88-1.49a2.79,2.79,0,0,1,1.26.26l-.23.76a2.32,2.32,0,0,0-1.06-.24c-.61,0-.87.31-.87.62s.31.59,1,.86c.92.34,1.36.79,1.36,1.54s-.64,1.56-2,1.56a3,3,0,0,1-1.43-.33Z"/><path class="cls-1" d="M115.26,49.53v2.08h2.24V49.53h1v5.2h-1V52.44h-2.24v2.29h-1v-5.2Z"/><path class="cls-1" d="M129.06,54.58a3.52,3.52,0,0,1-1.37.23,2.47,2.47,0,0,1-2.7-2.62,2.64,2.64,0,0,1,2.83-2.74,3.09,3.09,0,0,1,1.28.23l-.21.75a2.76,2.76,0,0,0-1-.2A1.75,1.75,0,0,0,126,52.15,1.71,1.71,0,0,0,127.85,54a2.94,2.94,0,0,0,1.05-.19Z"/><path class="cls-1" d="M136.41,52.08a2.47,2.47,0,0,1-2.53,2.73,2.42,2.42,0,0,1-2.44-2.64A2.52,2.52,0,0,1,134,49.44,2.42,2.42,0,0,1,136.41,52.08Zm-3.95.07c0,1.06.54,1.9,1.47,1.9s1.46-.86,1.46-1.94-.5-1.91-1.46-1.91S132.46,51.07,132.46,52.15Z"/><path class="cls-1" d="M139.28,49.53h1v4.4h2.17v.8h-3.13Z"/><path class="cls-1" d="M145.18,49.53h1v4.4h2.17v.8h-3.14Z"/><path class="cls-1" d="M154,52.42h-2V54h2.23v.78h-3.19v-5.2h3.07v.78h-2.11v1.34h2Z"/><path class="cls-1" d="M161.4,54.49a5.46,5.46,0,0,1-1.7.29,2.88,2.88,0,0,1-2.07-.69,2.59,2.59,0,0,1-.74-1.91,2.67,2.67,0,0,1,2.94-2.7,3.66,3.66,0,0,1,1.4.24l-.21.77a2.76,2.76,0,0,0-1.2-.23,1.76,1.76,0,0,0-1.92,1.87A1.73,1.73,0,0,0,159.74,54a2,2,0,0,0,.73-.1v-1.3h-.94v-.75h1.87Z"/><path class="cls-1" d="M167.38,52.42h-2V54h2.23v.78h-3.19v-5.2h3.07v.78h-2.11v1.34h2Z"/></svg>